<svg xmlns="http://www.w3.org/2000/svg" width="21" height="21" viewBox="0 0 21 21">
  <path id="Path_4" data-name="Path 4" d="M10.46,21h0Zm.074,0h0Zm-.106,0h0Zm.14,0h0ZM10.4,21h0Zm.2,0h0Zm.034,0h0Zm-.278,0h0Zm.312,0h0Zm-.345,0h0Zm.378,0h0Zm-.409,0h0Zm-.038,0h0Zm.482,0h0Zm-.515,0h0Zm.549,0h0Zm.034,0h0Zm-.614,0h0Zm-.03,0h0Zm.677,0h0Zm.034,0h0Zm-.753,0h0Zm-.031,0h0Zm.818,0h0Zm-.848,0h0Zm.882,0h0Zm-.924,0h0Zm.958,0h0Zm-.988,0h0Zm1.021,0h0Zm-1.051,0h0Zm1.085,0h0Zm.034,0h0Zm-1.145,0h0Zm1.179,0h0Zm-1.224,0h0Zm-.03,0h0Zm1.287,0h0Zm-1.315,0h0Zm1.349,0h0Zm.033,0h0Zm-1.425,0h0Zm-.03,0h0Zm1.488,0h0Zm-1.518,0h0Zm1.551,0h0Zm-1.591,0h0Zm1.624,0h0Zm.033,0h0Zm-1.688,0h0Zm-.03,0h0Zm1.751,0h0Zm-1.784,0h0Zm1.817,0h0Zm.033,0h0Zm-1.885,0h0Zm-.031,0h0Zm1.949,0h0Zm-2.614-.083a10.5,10.5,0,1,1,3.281,0V13.535h2.447l.466-3.035H12.141V8.53a1.518,1.518,0,0,1,1.711-1.64h1.324V4.307a16.146,16.146,0,0,0-2.35-.205c-2.4,0-3.966,1.454-3.966,4.085V10.5H6.193v3.035H8.859Z" transform="translate(0 0)" fill="#215480" fill-rule="evenodd"/>
</svg>
