<svg xmlns="http://www.w3.org/2000/svg" width="21" height="21" viewBox="0 0 21 21">
  <path id="Path_6" data-name="Path 6" d="M10.5,0A10.5,10.5,0,1,1,0,10.5,10.5,10.5,0,0,1,10.5,0ZM7.217,16.4V8.2H4.491v8.2Zm9.828,0V11.7c0-2.519-1.345-3.69-3.138-3.69a2.707,2.707,0,0,0-2.456,1.354V8.2H8.726c.036.769,0,8.2,0,8.2h2.725V11.822a1.863,1.863,0,0,1,.09-.665,1.492,1.492,0,0,1,1.4-1c.986,0,1.381.752,1.381,1.854V16.4ZM5.873,4.247a1.421,1.421,0,1,0-.036,2.834h.018a1.421,1.421,0,1,0,.018-2.834Z" fill="#215480" fill-rule="evenodd"/>
</svg>
