<svg id="Logo" xmlns="http://www.w3.org/2000/svg" width="256" height="134" viewBox="0 0 256 134">
  <text id="Auction" transform="translate(4 61)" fill="#1b5f5b" font-size="67" font-family="Georgia"><tspan x="0" y="0">A</tspan><tspan y="0" fill="#333">uction</tspan></text>
  <text id="House" transform="translate(0 119)" fill="#802b28" font-size="67" font-family="Georgia"><tspan x="0" y="0">H</tspan><tspan y="0" fill="#333">ouse</tspan></text>
  <g id="XMLID_474_" transform="translate(195.235 64.962)">
    <path id="XMLID_622_" d="M33.448,32.331a3.156,3.156,0,0,0,.093,4.289,3.256,3.256,0,0,0,2.238.932,3.03,3.03,0,0,0,2.238-.932L50.23,24.406h0a3.1,3.1,0,0,0,0-4.382,3.159,3.159,0,0,0-4.289-.093L34.846,9.023a2.981,2.981,0,0,0-.093-4.289,3.094,3.094,0,0,0-4.382,0l-12.12,12.12a3.1,3.1,0,0,0,4.289,4.475L25.8,24.593,2.308,46.782A4.024,4.024,0,1,0,8,52.47l22.19-23.495Zm15.384-11a1.3,1.3,0,0,1,0,1.771L36.618,35.315a1.253,1.253,0,0,1-1.771-1.771L47.06,21.33A1.212,1.212,0,0,1,48.831,21.33Zm-29.275-1.4a1.3,1.3,0,0,1,0-1.771l12.12-12.12a1.211,1.211,0,0,1,1.771,0,1.3,1.3,0,0,1,0,1.771h0l-12.12,12.12A1.212,1.212,0,0,1,19.556,19.931Zm11.188-6.806,2.89-2.89L44.543,21.143l-9.79,9.883-10.908-11ZM6.6,51.257a2.042,2.042,0,0,1-3.077,0,2.115,2.115,0,0,1,.093-3.077l23.495-22.19,1.771,1.771Z" transform="translate(0 0)" fill="#333"/>
    <path id="XMLID_629_" d="M61.469,59.374H60.444V55.086a2.706,2.706,0,0,0-2.7-2.7H56.435V50.7a2.706,2.706,0,0,0-2.7-2.7H35.271a2.706,2.706,0,0,0-2.7,2.7v1.678H31.262a2.706,2.706,0,0,0-2.7,2.7v4.289H27.532a.932.932,0,1,0,0,1.865h34.03a.881.881,0,0,0,.932-.932A.958.958,0,0,0,61.469,59.374ZM34.432,50.611a.836.836,0,0,1,.839-.839H53.638a.836.836,0,0,1,.839.839v1.678H34.432Zm-4.1,8.764V55.086a.836.836,0,0,1,.839-.839H57.647a.836.836,0,0,1,.839.839v4.289Z" transform="translate(-1.73 -2.989)" fill="#333"/>
  </g>
</svg>
