<svg xmlns="http://www.w3.org/2000/svg" width="21" height="21" viewBox="0 0 21 21">
  <path id="Path_5" data-name="Path 5" d="M10.5,0A10.5,10.5,0,1,1,0,10.5,10.5,10.5,0,0,1,10.5,0ZM8.651,16.085A7.138,7.138,0,0,0,15.837,8.9c0-.11,0-.22-.005-.325a5.174,5.174,0,0,0,1.262-1.31,5.126,5.126,0,0,1-1.451.4,2.525,2.525,0,0,0,1.111-1.4,5.116,5.116,0,0,1-1.6.613A2.527,2.527,0,0,0,10.783,8.6a2.315,2.315,0,0,0,.068.576A7.165,7.165,0,0,1,5.644,6.54,2.525,2.525,0,0,0,6.43,9.909a2.481,2.481,0,0,1-1.142-.314v.031A2.529,2.529,0,0,0,7.315,12.1a2.519,2.519,0,0,1-.665.089,2.409,2.409,0,0,1-.477-.047A2.522,2.522,0,0,0,8.53,13.9a5.077,5.077,0,0,1-3.138,1.079,4.6,4.6,0,0,1-.6-.037,7.038,7.038,0,0,0,3.861,1.142Z" fill="#215480" fill-rule="evenodd"/>
</svg>
